<svg xmlns="http://www.w3.org/2000/svg" width="111.628" height="100" viewBox="0 0 111.628 100">
  <g id="Logo-cvc" transform="translate(-132.848 -155.467)">
    <path id="path2-1" d="M254,440.223a16.952,16.952,0,0,0-4.473-1.315,5.532,5.532,0,0,0-4.852,1.68c-11.439,12.18-25.192,18.887-38.744,18.887-12.19,0-22.594-7.408-27.156-19.376a1.974,1.974,0,0,0-2.4-1.162c-.417.095-.863.373-.789.753,3.126,14.912,14.586,24.929,29.9,26.156a55.236,55.236,0,0,0,49.081-23.438,1.467,1.467,0,0,0-.573-2.185Z" transform="translate(-31.75 -210.544)" fill="#fff"/>
    <path id="path4-2" d="M459.81,282.971c4.979,0,9.228,1.337,12.614,4.618a.828.828,0,0,1-.03,1.235l-5.358,4.705a.838.838,0,0,1-.566.212.893.893,0,0,1-.6-.226,8.174,8.174,0,0,0-5.7-2.024,7.83,7.83,0,0,0-8.1,8.125c0,5.056,3.23,9.323,8.677,9.323a9.239,9.239,0,0,0,6.229-2.462.9.9,0,0,1,.6-.234.861.861,0,0,1,.551.2l5.6,4.676a.834.834,0,0,1,.037,1.264,19.391,19.391,0,0,1-13.493,5.019c-10.3,0-18.449-6.941-18.449-17.192C441.83,290.423,449.956,282.971,459.81,282.971Z" transform="translate(-229.56 -94.732)" fill="#fff"/>
    <path id="path6-8" d="M311.962,285.075a.847.847,0,0,1,.781,1.206l-13.306,27.975a8.484,8.484,0,0,1-6.757,4.223,7.47,7.47,0,0,1-6.765-4.245L272.7,286.28a.85.85,0,0,1,.781-1.2h8.8a.877.877,0,0,1,.8.519l9.042,21.093a.667.667,0,0,0,1.221-.007l9-21.093a.885.885,0,0,1,.8-.519Z" transform="translate(-103.845 -96.295)" fill="#fff"/>
    <path id="path8-9" d="M150.835,282.971c4.979,0,9.228,1.337,12.614,4.618a.828.828,0,0,1-.03,1.235l-5.358,4.705a.838.838,0,0,1-.566.212.893.893,0,0,1-.6-.226,8.174,8.174,0,0,0-5.7-2.024,7.83,7.83,0,0,0-8.1,8.125c0,5.056,3.23,9.323,8.677,9.323A9.238,9.238,0,0,0,158,306.475a.9.9,0,0,1,.6-.234.861.861,0,0,1,.551.2l5.6,4.676a.834.834,0,0,1,.037,1.264A19.39,19.39,0,0,1,151.3,317.4c-10.3,0-18.449-6.941-18.449-17.192.007-9.783,8.127-17.235,17.988-17.235Z" transform="translate(0 -94.732)" fill="#fff"/>
    <path id="path10-7" d="M208.2,181.254a16.954,16.954,0,0,0,4.473,1.315,5.532,5.532,0,0,0,4.852-1.68C228.96,168.709,242.713,162,256.265,162c12.19,0,22.594,7.408,27.156,19.376a1.974,1.974,0,0,0,2.4,1.162c.417-.095.863-.373.789-.753-3.126-14.912-14.587-24.929-29.9-26.156a55.235,55.235,0,0,0-49.08,23.438,1.466,1.466,0,0,0,.573,2.185Z" transform="translate(-55.352 0)" fill="#fff"/>
  </g>
</svg>
