<svg xmlns="http://www.w3.org/2000/svg" width="132.203" height="100" viewBox="0 0 132.203 100">
  <g id="Logo-Siry" transform="translate(-62.419 88.673)">
    <g id="Grupo_11" data-name="Grupo 11" transform="translate(62.419 -9.687)">
      <path id="Caminho_142" data-name="Caminho 142" d="M66.3,39.132a2.99,2.99,0,0,0,.851,1.139,3.357,3.357,0,0,0,1.211.651,5.309,5.309,0,0,0,1.44.2,6.655,6.655,0,0,0,1.08-.1,3.067,3.067,0,0,0,1.08-.39,2.769,2.769,0,0,0,.851-.781,2.153,2.153,0,0,0,.327-1.269,2,2,0,0,0-.458-1.334A3.647,3.647,0,0,0,71.5,36.4a10.69,10.69,0,0,0-1.637-.586c-.622-.163-1.244-.358-1.866-.553a18.792,18.792,0,0,1-1.9-.683,5.611,5.611,0,0,1-1.637-1.041,4.647,4.647,0,0,1-1.179-1.626,5.64,5.64,0,0,1-.458-2.342,6.312,6.312,0,0,1,.557-2.7,5.751,5.751,0,0,1,1.506-1.887,6.234,6.234,0,0,1,2.1-1.139,8.233,8.233,0,0,1,2.324-.358,9.977,9.977,0,0,1,2.619.358,6.279,6.279,0,0,1,2.226,1.139A5.63,5.63,0,0,1,75.694,27a6.835,6.835,0,0,1,.557,2.96h-3.7a3.894,3.894,0,0,0-.327-1.5,2.419,2.419,0,0,0-.753-.943,2.821,2.821,0,0,0-1.048-.488,5.412,5.412,0,0,0-1.31-.13,4.392,4.392,0,0,0-.917.1,2.24,2.24,0,0,0-.851.39,2.195,2.195,0,0,0-.622.716,2.171,2.171,0,0,0-.229,1.074,1.6,1.6,0,0,0,.949,1.626,9.824,9.824,0,0,0,1.571.618c.655.2,1.539.455,2.619.781a7.519,7.519,0,0,1,1.342.423,5.923,5.923,0,0,1,3.176,2.667,5.41,5.41,0,0,1,.622,2.765,7.314,7.314,0,0,1-.458,2.57,5.4,5.4,0,0,1-1.375,2.049,6.2,6.2,0,0,1-2.259,1.334,9.172,9.172,0,0,1-3.11.488,9.027,9.027,0,0,1-2.783-.423,6.733,6.733,0,0,1-2.39-1.269A6.217,6.217,0,0,1,62.762,40.6a8.086,8.086,0,0,1-.589-3.22h3.7A5.761,5.761,0,0,0,66.3,39.132Z" transform="translate(-62.173 -23.485)" fill="#fff"/>
      <path id="Caminho_143" data-name="Caminho 143" d="M89.28,24.228v20.1h-3.8v-20.1Z" transform="translate(-69.018 -23.709)" fill="#fff"/>
      <path id="Caminho_144" data-name="Caminho 144" d="M104.155,24.228a4.7,4.7,0,0,1,3.7,1.626,5.267,5.267,0,0,1,1.015,1.757,6.566,6.566,0,0,1,.36,2.147,6.8,6.8,0,0,1-.655,3.058,4.15,4.15,0,0,1-2.095,1.984v.065a3.5,3.5,0,0,1,1.178.683,4.413,4.413,0,0,1,.753,1.106,5.844,5.844,0,0,1,.425,1.4,12.261,12.261,0,0,1,.2,1.529c0,.325.033.683.033,1.139a9.526,9.526,0,0,0,.1,1.334,7.394,7.394,0,0,0,.2,1.269,4.3,4.3,0,0,0,.393,1.041h-3.8a10.59,10.59,0,0,1-.392-2.277c-.033-.878-.131-1.724-.229-2.537a4.347,4.347,0,0,0-.819-2.31,2.608,2.608,0,0,0-2.063-.748h-3.8v7.84H94.824v-20.1ZM102.813,33.3a2.569,2.569,0,0,0,1.965-.683,3.138,3.138,0,0,0,.655-2.212,2.923,2.923,0,0,0-.655-2.114,2.56,2.56,0,0,0-1.965-.651H98.655V33.3Z" transform="translate(-71.706 -23.709)" fill="#fff"/>
      <path id="Caminho_145" data-name="Caminho 145" d="M115,24.228h4.256l4.059,7.937,4.027-7.937H131.6l-6.416,12.394v7.71h-3.8v-7.84Z" transform="translate(-77.59 -23.709)" fill="#fff"/>
      <path id="Caminho_146" data-name="Caminho 146" d="M152.1,35.683h3.666v5.3a6.416,6.416,0,0,1-4.125,1.529,4.149,4.149,0,0,1-3.34-1.431,5.887,5.887,0,0,1-1.244-3.969V30.8a5.582,5.582,0,0,1,1.277-3.871,4.389,4.389,0,0,1,3.4-1.431,6.777,6.777,0,0,1,4.289,1.464l.262.2.392-1.3-.131-.1a8.231,8.231,0,0,0-4.91-1.626,5.729,5.729,0,0,0-4.322,1.822,6.876,6.876,0,0,0-1.67,4.847v6.278a7.019,7.019,0,0,0,1.67,4.944,5.63,5.63,0,0,0,4.322,1.822,7.978,7.978,0,0,0,2.881-.488,8.442,8.442,0,0,0,2.521-1.561l.1-.065V34.317H152.1Z" transform="translate(-86.568 -23.689)" fill="#fff"/>
      <path id="Caminho_147" data-name="Caminho 147" d="M167.607,24.46H166.2V43.75h8.611V42.416h-7.2Z" transform="translate(-92.592 -23.787)" fill="#fff"/>
      <path id="Caminho_148" data-name="Caminho 148" d="M185.106,24.135a5.681,5.681,0,0,0-4.55,1.887,7.7,7.7,0,0,0-1.6,5.107v5.725a7.7,7.7,0,0,0,1.6,5.107,5.773,5.773,0,0,0,4.55,1.887,5.671,5.671,0,0,0,4.551-1.887,7.53,7.53,0,0,0,1.6-5.107V31.161a7.7,7.7,0,0,0-1.6-5.107A5.693,5.693,0,0,0,185.106,24.135Zm-.032,1.366A4.324,4.324,0,0,1,188.61,27a6.489,6.489,0,0,1,1.244,4.2v5.693a6.312,6.312,0,0,1-1.277,4.2,4.353,4.353,0,0,1-3.5,1.5,4.309,4.309,0,0,1-3.471-1.464,6.428,6.428,0,0,1-1.244-4.2V31.161a6.489,6.489,0,0,1,1.244-4.2A4.264,4.264,0,0,1,185.074,25.5Z" transform="translate(-96.292 -23.689)" fill="#fff"/>
      <path id="Caminho_149" data-name="Caminho 149" d="M208.147,33.712a4.165,4.165,0,0,0,2.227-3.871v-.748a4.22,4.22,0,0,0-1.441-3.416,5.88,5.88,0,0,0-3.863-1.171h-4.91V43.764h4.78a7.093,7.093,0,0,0,4.322-1.2,4.269,4.269,0,0,0,1.571-3.578v-.911a4.651,4.651,0,0,0-.95-2.96A4,4,0,0,0,208.147,33.712Zm-6.58.781h3.373c3.012,0,4.485,1.171,4.485,3.578v.813a3.14,3.14,0,0,1-1.146,2.635,5.647,5.647,0,0,1-3.4.911h-3.307Zm6.351-2.179a4.7,4.7,0,0,1-2.979.846h-3.373V25.84h3.373a4.573,4.573,0,0,1,2.979.878,3.09,3.09,0,0,1,1.048,2.5v.618A2.979,2.979,0,0,1,207.918,32.313Z" transform="translate(-102.266 -23.801)" fill="#fff"/>
      <path id="Caminho_150" data-name="Caminho 150" d="M222.018,24.46l-5.7,19.29h1.44l1.8-6.018h6.384l1.768,6.018h1.44l-5.7-19.29ZM225.586,36.4h-5.664l2.815-9.5Z" transform="translate(-107.1 -23.787)" fill="#fff"/>
      <path id="Caminho_151" data-name="Caminho 151" d="M238.188,42.416V24.46h-1.407V43.75h8.642V42.416Z" transform="translate(-113.221 -23.787)" fill="#fff"/>
    </g>
    <path id="Caminho_152" data-name="Caminho 152" d="M42.58,33.716c-.8,1.151-1.442,2.152-2.139,3.1a45.057,45.057,0,0,1-8.007,9.11,28.817,28.817,0,0,1-4.078,2.9,1.02,1.02,0,0,0-.547.951,16.468,16.468,0,0,0,1.044,6.758,7.412,7.412,0,0,0,3.382,4c.746.4.8.5.1,1.1a49.945,49.945,0,0,1-6.018,4.2,33.814,33.814,0,0,1-8.007,3.3,15.941,15.941,0,0,1-6.515.35,11.239,11.239,0,0,1-8.753-6.858A19.16,19.16,0,0,1,1.7,57.993a36.264,36.264,0,0,1-.149-7.709c0-.7.3-1.4.249-2.1,0-.15,0-.35.2-.4.249-.05.249.2.348.35a14.471,14.471,0,0,1,.448,2,14.151,14.151,0,0,0,7.51,9.26,22.007,22.007,0,0,0,5.521,1.952,31.041,31.041,0,0,0,5.272.7c1.641.05,3.282-.05,4.924,0,.547,0,.647-.2.4-.651A25.356,25.356,0,0,1,23.93,55.24a14.676,14.676,0,0,1-.448-2.9,23.751,23.751,0,0,1,0-4.2,19.711,19.711,0,0,1,1.293-5.306,34.983,34.983,0,0,1,5.421-8.96A69.358,69.358,0,0,1,40.84,23.555c4.078-3.3,8.306-6.457,12.633-9.411.448-.3.845-.6,1.293-.9.1-.1.249-.15.2-.3a.354.354,0,0,0-.3-.15c-.2-.05-.448-.1-.647-.15a64.377,64.377,0,0,0-8.206-.4q-3.432.15-6.863.6A48.542,48.542,0,0,0,23.83,17.648a52.888,52.888,0,0,0-7.311,4.605,59.044,59.044,0,0,0-6.366,5.857c-.2.2-.348.5-.547.7a1.564,1.564,0,0,1-.7.551,2.185,2.185,0,0,1,.348-1A71.655,71.655,0,0,1,20.6,13.543,47.7,47.7,0,0,1,33.877,3.883a21.745,21.745,0,0,1,6.167-2,18.115,18.115,0,0,1,5.918-.15,10.323,10.323,0,0,1,6.068,3.2,14.96,14.96,0,0,1,3.332,6.107,23.022,23.022,0,0,1,.845,5.756,31.846,31.846,0,0,1-.8,7.508c-.4,1.752-.746,3.554-1.293,5.256a67.145,67.145,0,0,1-7.261,15.567A70.245,70.245,0,0,1,36.811,57.743a2.574,2.574,0,0,1-1.044.7A38.293,38.293,0,0,0,42.58,33.716Z" transform="translate(99.704 -90.225)" fill="#fff"/>
  </g>
</svg>
