<svg xmlns="http://www.w3.org/2000/svg" width="180.378" height="33.911" viewBox="0 0 180.378 33.911">
  <g id="Logo-crefaz" transform="translate(-1.1 -1.1)">
    <path id="Caminho_154" data-name="Caminho 154" d="M25.892,25.546c-.254-.252-.367-.2-.593.009a10.091,10.091,0,0,1-9.117,2.6A9.888,9.888,0,0,1,8.2,20.98a9.713,9.713,0,0,1,2.634-10.271A10.391,10.391,0,0,1,25.271,10.5c.282.261.4.2.63-.028,1.345-1.351,2.7-2.7,4.074-4.026.273-.261.216-.382-.028-.606A17.109,17.109,0,0,0,18.469,1.175a.1.1,0,0,1,0-.075h-.536v.047c-.5.009-.988.009-1.487.037A15.691,15.691,0,0,0,10.2,2.992a16.9,16.9,0,0,0-4.385,3.29A16.818,16.818,0,0,0,1.6,13.589a16.424,16.424,0,0,0-.5,3.1v2.684c.16.065.085.205.094.308a15.7,15.7,0,0,0,2.39,7.093c3.9,5.974,9.475,8.686,16.635,8A16.254,16.254,0,0,0,30,30.169c.216-.205.207-.308,0-.513C28.63,28.286,27.247,26.935,25.892,25.546Z" fill="#fff"/>
    <path id="Caminho_155" data-name="Caminho 155" d="M602.908,1.175a.1.1,0,0,1,0-.075h-.63v.075a16.6,16.6,0,0,0-11.592,4.818,16.308,16.308,0,0,0-4.968,14.213,16.17,16.17,0,0,0,5.053,9.963,16.688,16.688,0,0,0,10.143,4.651,16.9,16.9,0,0,0,8.59-1.361c.254-.112.367-.2.254-.513q-.946-2.782-1.844-5.573c-.1-.317-.207-.354-.508-.2a10.109,10.109,0,0,1-6.53,1.035,10.325,10.325,0,0,1,1.543-20.523,10.449,10.449,0,0,1,10.416,8.36c.066.326.009.4-.32.4-1.543,0-3.086.019-4.629.028-1.825.009-3.66.019-5.485.009-.3,0-.376.047-.273.354q.96,2.866,1.872,5.741c.094.3.263.326.527.317q7.014-.028,14.029-.037a.414.414,0,0,0,.48-.373A16.043,16.043,0,0,0,617.878,10.6C614.754,4.632,609.711,1.5,602.908,1.175Z" transform="translate(-529.482 0)" fill="#fff"/>
    <path id="Caminho_156" data-name="Caminho 156" d="M1638.313,23.9q6.436-5.648,12.881-11.3a.389.389,0,0,1,.1.009V5.576c-.038,0-.066.009-.1.009a46.017,46.017,0,0,0-15.139-2.078,46.62,46.62,0,0,0-12.1,1.957c-.273.084-.376.186-.367.475q.014,3.076.01,6.142c0,.093-.047.205.056.289a39.353,39.353,0,0,1,20.107-1.929c-.169.14-.254.205-.329.27q-3.712,3.257-7.433,6.515l-12.137,10.653a.638.638,0,0,0-.263.522q.014,3.118,0,6.235c0,.224.047.336.292.41a45.121,45.121,0,0,0,9.635,1.845,46.512,46.512,0,0,0,8.524-.075,45.064,45.064,0,0,0,9.164-1.883.322.322,0,0,1,.094.009v-6.86c-.038.009-.075.019-.122.028a39.487,39.487,0,0,1-19.966,2.013c.179-.158.292-.27.414-.373Q1634.963,26.844,1638.313,23.9Z" transform="translate(-1469.829 -2.164)" fill="#fff"/>
    <path id="Caminho_157" data-name="Caminho 157" d="M995.155,5.732a17.053,17.053,0,0,0-11.338-4.557.1.1,0,0,1,0-.075h-.63v.075c-.452.028-.894.037-1.345.084a16.882,16.882,0,0,0-12,6.692.975.975,0,0,0-.245.643q.014,12.959,0,25.91c0,.354.122.4.433.4,1.9-.009,3.811-.019,5.711,0,.358,0,.442-.093.442-.438-.009-3.691,0-7.391-.019-11.082,0-.41.113-.475.5-.475,3,.019,5.993,0,8.995.019.452,0,.527-.13.517-.541-.028-1.808-.028-3.616,0-5.434.009-.41-.066-.55-.527-.541-3.03.028-6.059.009-9.079.019-.311,0-.4-.075-.4-.391.019-1.65.019-3.29,0-4.94a.864.864,0,0,1,.329-.727,10.459,10.459,0,0,1,14.16.149c.226.205.329.186.536-.019,1.327-1.333,2.663-2.647,4-3.97C995.606,6.133,995.6,6.133,995.155,5.732Z" transform="translate(-877.375)" fill="#fff"/>
    <path id="Caminho_158" data-name="Caminho 158" d="M352.176,5.583A16.965,16.965,0,0,0,340.96,1.175V1.1h-.536v.075c-.461.028-.931.037-1.392.093a16.865,16.865,0,0,0-11.978,6.654,1.09,1.09,0,0,0-.245.736q.014,12.89-.009,25.779c0,.419.132.475.508.475,1.825-.019,3.66-.019,5.485,0,.442.009.574-.084.574-.55-.019-7.736-.009-15.462-.019-23.2a.977.977,0,0,1,.358-.8,10.475,10.475,0,0,1,14.019.075c.31.28.461.3.762-.009,1.214-1.249,2.475-2.46,3.707-3.691C352.806,6.142,352.806,6.142,352.176,5.583Z" transform="translate(-295.055 0)" fill="#fff"/>
    <path id="Caminho_159" data-name="Caminho 159" d="M1262.217,19.016a14.587,14.587,0,0,0-.32-3,17.063,17.063,0,0,0-19.956-13.02,16.868,16.868,0,0,0-13.323,20.243,17.092,17.092,0,0,0,22.2,12.256,17.751,17.751,0,0,0,4.855-2.6c0,1.053.019,1.994-.009,2.936-.01.373.066.5.48.5,1.863-.028,3.717-.019,5.579,0,.386,0,.5-.084.5-.485Q1262.2,27.432,1262.217,19.016Zm-17,10.858a10.332,10.332,0,1,1,10.453-10.122A10.4,10.4,0,0,1,1245.215,29.873Z" transform="translate(-1111.648 -1.419)" fill="#fff"/>
  </g>
</svg>
