<svg id="Logo-recalcule" xmlns="http://www.w3.org/2000/svg" width="160" height="47" viewBox="0 0 160 47">
  <path id="Caminho_160" data-name="Caminho 160" d="M7.813,20.8H7.3v9.466H0V1.235H9.049c5.946,0,10.491,4.249,10.491,9.97a9.24,9.24,0,0,1-1.172,4.575A9.349,9.349,0,0,1,15.08,19.2l6.753,11.064H13.124ZM7.3,14.486H8.876a3.131,3.131,0,0,0,3.185-3.24,3.121,3.121,0,0,0-3.185-3.2H7.3Z" transform="translate(0 0.027)" fill="#fff"/>
  <path id="Caminho_161" data-name="Caminho 161" d="M43.651,19.384c0-6.226,4.843-11.232,11.808-11.232A13.771,13.771,0,0,1,60.848,9.2v6.689a10.607,10.607,0,0,0-4.672-1.136c-3.4,0-5.479,1.978-5.479,4.627s2.081,4.632,5.479,4.632a10.607,10.607,0,0,0,4.672-1.135v6.685a13.841,13.841,0,0,1-5.389,1.051C48.5,30.617,43.651,25.779,43.651,19.384Z" transform="translate(1.408 0.177)" fill="#fff"/>
  <path id="Caminho_162" data-name="Caminho 162" d="M78.894,15.893V30.112H72.523V28.934a6.866,6.866,0,0,1-4.545,1.683,6.968,6.968,0,0,1-7.008-7.11,6.956,6.956,0,0,1,7.008-7.067A6.857,6.857,0,0,1,72.012,17.7V16.482c0-1.6-1.317-2.651-3.4-2.651a11.915,11.915,0,0,0-6.073,2.061V10.3a13.822,13.822,0,0,1,7.518-2.146C75.326,8.152,78.894,11.223,78.894,15.893Zm-6.881,7.614a2,2,0,1,0-3.992,0,2,2,0,1,0,3.992,0Z" transform="translate(1.967 0.177)" fill="#fff"/>
  <path id="Caminho_163" data-name="Caminho 163" d="M81.063,0h6.88V30.289h-6.88Z" transform="translate(2.615)" fill="#fff"/>
  <path id="Caminho_164" data-name="Caminho 164" d="M88.65,19.384c0-6.226,4.842-11.232,11.807-11.232A13.817,13.817,0,0,1,105.852,9.2v6.689a10.611,10.611,0,0,0-4.677-1.136c-3.4,0-5.479,1.978-5.479,4.627s2.081,4.632,5.479,4.632a10.647,10.647,0,0,0,4.677-1.135v6.685a13.846,13.846,0,0,1-5.395,1.051C93.491,30.617,88.65,25.779,88.65,19.384Z" transform="translate(2.86 0.177)" fill="#fff"/>
  <path id="Caminho_165" data-name="Caminho 165" d="M124.888,8.647V30.1h-6.881V28.5a6.217,6.217,0,0,1-4.8,2.1c-3.737,0-6.284-2.608-6.284-6.646V8.647h6.88V21.9a1.89,1.89,0,0,0,1.954,2.1,2.075,2.075,0,0,0,2.25-2.187V8.647Z" transform="translate(3.45 0.188)" fill="#fff"/>
  <path id="Caminho_166" data-name="Caminho 166" d="M125.975,0h6.881V30.289h-6.881Z" transform="translate(4.065)" fill="#fff"/>
  <path id="Caminho_167" data-name="Caminho 167" d="M155.352,21.446h-14.4c.765,2.1,2.8,3.323,6.2,3.323a16.858,16.858,0,0,0,6.8-1.511v5.89a19.1,19.1,0,0,1-7.476,1.472c-8.324,0-12.913-4.834-12.913-11.105A11.124,11.124,0,0,1,144.987,8.156a10.347,10.347,0,0,1,10.7,10.686A8.946,8.946,0,0,1,155.352,21.446Zm-14.437-4.206h7.726a3.679,3.679,0,0,0-3.694-3.282,4.241,4.241,0,0,0-4.035,3.282Z" transform="translate(4.309 0.177)" fill="#fff"/>
  <path id="Caminho_168" data-name="Caminho 168" d="M41.132,21.446h-14.4c.765,2.1,2.8,3.323,6.2,3.323a16.857,16.857,0,0,0,6.8-1.511v5.89a19.09,19.09,0,0,1-7.475,1.472c-8.325,0-12.912-4.834-12.912-11.105A11.124,11.124,0,0,1,30.769,8.156a10.347,10.347,0,0,1,10.7,10.686A8.993,8.993,0,0,1,41.132,21.446ZM26.694,17.239h7.727a3.68,3.68,0,0,0-3.695-3.282,4.241,4.241,0,0,0-4.035,3.282Z" transform="translate(0.624 0.177)" fill="#fff"/>
  <path id="Caminho_169" data-name="Caminho 169" d="M0,38.3A4.854,4.854,0,0,1,5.024,33.4a5.3,5.3,0,0,1,2.574.645v1.913a3.793,3.793,0,0,0-2.3-.74,3.081,3.081,0,1,0,0,6.141,3.793,3.793,0,0,0,2.3-.74v1.919a5.307,5.307,0,0,1-2.574.643A4.847,4.847,0,0,1,0,38.3Z" transform="translate(0 0.726)" fill="#fff"/>
  <path id="Caminho_170" data-name="Caminho 170" d="M13.558,35.871v1.837c-1.149,0-1.772.439-1.772,1.617v3.646h-1.8V35.981h1.8v.727a2.2,2.2,0,0,1,1.772-.837Z" transform="translate(0.322 0.78)" fill="#fff"/>
  <path id="Caminho_171" data-name="Caminho 171" d="M22.248,40.149H17.072a2.186,2.186,0,0,0,2.367,1.466A5.4,5.4,0,0,0,21.863,41v1.6a5.793,5.793,0,0,1-2.589.589c-2.629,0-4.124-1.576-4.124-3.618a3.609,3.609,0,0,1,3.695-3.7,3.373,3.373,0,0,1,3.5,3.44A3.6,3.6,0,0,1,22.248,40.149Zm-5.19-1.261H20.5a1.626,1.626,0,0,0-1.675-1.452A1.818,1.818,0,0,0,17.058,38.888Zm2.6-3.618h-1.9l1.4-1.96h2.256Z" transform="translate(0.489 0.724)" fill="#fff"/>
  <path id="Caminho_172" data-name="Caminho 172" d="M31.713,33.162V43.03h-1.8v-.823a3.048,3.048,0,0,1-2.3.987,3.666,3.666,0,0,1,0-7.319,3.048,3.048,0,0,1,2.3.987v-3.7Zm-1.8,6.374a1.937,1.937,0,1,0-1.938,1.933A1.888,1.888,0,0,0,29.914,39.535Z" transform="translate(0.78 0.721)" fill="#fff"/>
  <path id="Caminho_173" data-name="Caminho 173" d="M34.132,34a1.133,1.133,0,0,1,.348-.783,1.157,1.157,0,0,1,1.6,0,1.133,1.133,0,0,1,.348.783,1.15,1.15,0,0,1-2.3,0Zm.249,2.042h1.8v6.991h-1.8Z" transform="translate(1.101 0.715)" fill="#fff"/>
  <path id="Caminho_174" data-name="Caminho 174" d="M41.229,37.642v3.1a.675.675,0,0,0,.747.754,1.83,1.83,0,0,0,.568-.11v1.659a3.036,3.036,0,0,1-.872.123,2.073,2.073,0,0,1-2.242-2.261V37.642h-.969V36.011h.969V34.476h1.8v1.535h1.316v1.631Z" transform="translate(1.241 0.749)" fill="#fff"/>
  <path id="Caminho_175" data-name="Caminho 175" d="M44.347,39.477a3.8,3.8,0,1,1,3.807,3.66A3.653,3.653,0,0,1,44.347,39.477Zm5.73,0a1.938,1.938,0,1,0-1.924,1.933A1.884,1.884,0,0,0,50.077,39.477Z" transform="translate(1.431 0.779)" fill="#fff"/>
  <path id="Caminho_176" data-name="Caminho 176" d="M57.7,39.477a3.656,3.656,0,0,1,3.819-3.659,4.19,4.19,0,0,1,1.8.384v1.754a3.535,3.535,0,0,0-1.62-.411,1.943,1.943,0,1,0,0,3.865A3.536,3.536,0,0,0,63.321,41v1.754a4.193,4.193,0,0,1-1.8.384A3.63,3.63,0,0,1,57.7,39.477Z" transform="translate(1.862 0.779)" fill="#fff"/>
  <path id="Caminho_177" data-name="Caminho 177" d="M65.221,39.477a3.8,3.8,0,1,1,3.806,3.66A3.652,3.652,0,0,1,65.221,39.477Zm5.729,0a1.937,1.937,0,1,0-1.924,1.933A1.884,1.884,0,0,0,70.95,39.477Z" transform="translate(2.104 0.779)" fill="#fff"/>
  <path id="Caminho_178" data-name="Caminho 178" d="M83.752,37.764v5.208h-1.8V38.353a.729.729,0,0,0-.762-.806.819.819,0,0,0-.9.836v4.592h-1.8V38.353a.739.739,0,0,0-.775-.806.808.808,0,0,0-.887.836v4.592h-1.8V35.982h1.8v.493a2.026,2.026,0,0,1,1.55-.658,1.813,1.813,0,0,1,1.688.946,2.03,2.03,0,0,1,1.785-.946A1.817,1.817,0,0,1,83.752,37.764Z" transform="translate(2.421 0.779)" fill="#fff"/>
  <path id="Caminho_179" data-name="Caminho 179" d="M89.793,39.477a3.657,3.657,0,0,1,3.82-3.659,4.19,4.19,0,0,1,1.8.384v1.754a3.538,3.538,0,0,0-1.62-.411,1.943,1.943,0,1,0,0,3.865A3.538,3.538,0,0,0,95.413,41v1.754a4.193,4.193,0,0,1-1.8.384A3.633,3.633,0,0,1,89.793,39.477Z" transform="translate(2.897 0.779)" fill="#fff"/>
  <path id="Caminho_180" data-name="Caminho 180" d="M97.314,39.477a3.8,3.8,0,1,1,3.806,3.66A3.652,3.652,0,0,1,97.314,39.477Zm5.729,0a1.937,1.937,0,1,0-1.923,1.933A1.883,1.883,0,0,0,103.043,39.477Z" transform="translate(3.14 0.779)" fill="#fff"/>
  <path id="Caminho_181" data-name="Caminho 181" d="M112.858,38v4.976h-1.8V38.586a.968.968,0,0,0-1.011-1.041,1.029,1.029,0,0,0-1.118,1.069v4.358h-1.8V35.982h1.8v.645a2.233,2.233,0,0,1,.8-.607,2.257,2.257,0,0,1,.987-.2A2.035,2.035,0,0,1,112.858,38Z" transform="translate(3.456 0.779)" fill="#fff"/>
  <path id="Caminho_182" data-name="Caminho 182" d="M117.524,35.427v.616h1.314v1.631h-1.314v5.359h-1.8V37.675h-.983V36.043h.983v-.781A2.073,2.073,0,0,1,117.962,33a3.023,3.023,0,0,1,.871.124v1.659a1.813,1.813,0,0,0-.567-.11A.672.672,0,0,0,117.524,35.427Z" transform="translate(3.702 0.717)" fill="#fff"/>
  <path id="Caminho_183" data-name="Caminho 183" d="M120.9,34a1.137,1.137,0,0,1,.348-.783,1.158,1.158,0,0,1,1.6,0,1.137,1.137,0,0,1,.348.783,1.15,1.15,0,0,1-2.3,0Zm.249,2.042h1.8v6.991h-1.8Z" transform="translate(3.901 0.715)" fill="#fff"/>
  <path id="Caminho_184" data-name="Caminho 184" d="M130.937,38.3v4.674H129.3v-.493a2.266,2.266,0,0,1-.749.492,2.291,2.291,0,0,1-.883.166,2.366,2.366,0,0,1-.9-.177A2.338,2.338,0,0,1,125.5,41.7a2.308,2.308,0,0,1,.509-2.532,2.356,2.356,0,0,1,1.659-.68,2.308,2.308,0,0,1,1.467.493v-.5c0-.672-.54-1.108-1.342-1.108a3.706,3.706,0,0,0-1.993.686V36.5a4.206,4.206,0,0,1,2.339-.685A2.5,2.5,0,0,1,130.937,38.3Zm-1.8,2.508a.952.952,0,0,0-1-.933.963.963,0,0,0-.372.062.942.942,0,0,0-.612.871.977.977,0,0,0,.3.673,1,1,0,0,0,1.377,0A.977.977,0,0,0,129.139,40.808Z" transform="translate(4.044 0.779)" fill="#fff"/>
  <path id="Caminho_185" data-name="Caminho 185" d="M139.253,38v4.976h-1.8V38.586a.968.968,0,0,0-1.011-1.041,1.03,1.03,0,0,0-1.119,1.069v4.358h-1.8V35.982h1.8v.645a2.247,2.247,0,0,1,1.786-.806A2.034,2.034,0,0,1,139.253,38Z" transform="translate(4.308 0.779)" fill="#fff"/>
  <path id="Caminho_186" data-name="Caminho 186" d="M143.261,39.477a1.962,1.962,0,0,0,2.145,1.933A3.53,3.53,0,0,0,147.024,41v1.754a4.154,4.154,0,0,1-1.605.384l-.193.234a1.334,1.334,0,0,1,1.177,1.385,1.493,1.493,0,0,1-1.606,1.466,2.516,2.516,0,0,1-1.342-.4v-1.05a2.351,2.351,0,0,0,1.246.48c.36,0,.622-.206.622-.493a.473.473,0,0,0-.139-.328.481.481,0,0,0-.331-.138.629.629,0,0,0-.4.164L143.524,44l.733-.973a3.559,3.559,0,0,1-2.846-3.551,3.656,3.656,0,0,1,3.819-3.659,4.182,4.182,0,0,1,1.8.384v1.754a3.53,3.53,0,0,0-1.619-.411A1.962,1.962,0,0,0,143.261,39.477Z" transform="translate(4.563 0.779)" fill="#fff"/>
  <path id="Caminho_187" data-name="Caminho 187" d="M154.72,38.3v4.674h-1.633v-.493a2.29,2.29,0,0,1-1.633.658,2.356,2.356,0,0,1-1.658-.68,2.307,2.307,0,0,1,0-3.286,2.356,2.356,0,0,1,1.658-.68,2.306,2.306,0,0,1,1.467.493v-.5c0-.672-.539-1.108-1.343-1.108a3.705,3.705,0,0,0-1.992.686V36.5a4.205,4.205,0,0,1,2.338-.685A2.5,2.5,0,0,1,154.72,38.3Zm-1.8,2.508a1,1,0,0,0-1.686-.671.941.941,0,0,0-.293.671.978.978,0,0,0,.3.665,1,1,0,0,0,1.369,0A.979.979,0,0,0,152.921,40.808Z" transform="translate(4.811 0.779)" fill="#fff"/>
  <path id="Caminho_188" data-name="Caminho 188" d="M35.334,7.49c-.044,0-.087.006-.132.006a1.57,1.57,0,0,1-.277-.025,10.584,10.584,0,0,1,5.9,5.624,1.715,1.715,0,0,0,1.677,1.29,1.621,1.621,0,0,0,1.14-.468,1.59,1.59,0,0,0,.472-1.129A10.013,10.013,0,0,0,35.334,7.49Z" transform="translate(1.127 0.162)" fill="#fff" fill-rule="evenodd"/>
  <path id="Caminho_189" data-name="Caminho 189" d="M42.578,4.433H35.241a1.587,1.587,0,0,0-1.091.472,1.554,1.554,0,0,0,0,2.185,1.587,1.587,0,0,0,1.091.472.962.962,0,0,0,.132-.006,10.012,10.012,0,0,1,8.784,5.3V6A1.557,1.557,0,0,0,43.7,4.892a1.587,1.587,0,0,0-1.117-.458Z" transform="translate(1.087 0.096)" fill="#fff" fill-rule="evenodd"/>
</svg>
